<svg id="Layer_1" data-name="Layer 1" xmlns="http://www.w3.org/2000/svg" viewBox="0 0 40 40"><defs><style>.cls-1{fill:#fff;}</style></defs><path class="cls-1" d="M20,11.26c-4.08,0-7.76,3.43-7.51,7.5.21,3.34,2.17,5.21,2.77,6.82a10.07,10.07,0,0,1,.59,3v.31h8.31v-.31a9.2,9.2,0,0,1,.59-3c.59-1.61,2.54-3.48,2.75-6.82C27.75,14.69,24.08,11.26,20,11.26Zm.07,15.33a1.3,1.3,0,0,1-1.3-1.37,1.3,1.3,0,1,1,1.3,1.37Zm.51-4.28H19.3c-.41-2.48,2.73-3.18,2.73-5a1.68,1.68,0,0,0-1.91-1.66,3.21,3.21,0,0,0-2.29,1L17,15.87a4.39,4.39,0,0,1,3.23-1.41c1.93,0,3.24,1.06,3.24,2.73C23.45,19.56,20.28,20,20.58,22.31Z"/><path class="cls-1" d="M20,34.46h0A4,4,0,0,0,23.23,33H16.78A4,4,0,0,0,20,34.46Z"/><path class="cls-1" d="M15.84,30.18a3.4,3.4,0,0,0,0,.45h8.26a3.4,3.4,0,0,0,0-.45v-.66H15.84Z"/><path class="cls-1" d="M17.43,31.26H16a3.52,3.52,0,0,0,.43,1l.06.09h7.13a3.44,3.44,0,0,0,.48-1.13H17.43Z"/><path class="cls-1" d="M10.3,18.12a.7.7,0,0,1,0,1.4H7.39a.7.7,0,0,1,0-1.4Z"/><path class="cls-1" d="M32.61,18.12a.7.7,0,0,1,0,1.4H29.7a.7.7,0,0,1,0-1.4Z"/><path class="cls-1" d="M20.7,9.12a.7.7,0,0,1-1.4,0V6.21a.7.7,0,0,1,1.4,0Z"/><path class="cls-1" d="M12.65,25.19a.64.64,0,0,1,1,0,.64.64,0,0,1,0,1l-2.06,2.06a.65.65,0,0,1-1,0,.64.64,0,0,1,0-1Z"/><path class="cls-1" d="M28.43,9.41a.64.64,0,0,1,1,0,.65.65,0,0,1,0,1l-2.06,2.06a.7.7,0,0,1-1-1Z"/><path class="cls-1" d="M13.64,11.47a.7.7,0,0,1-1,1L10.59,10.4a.7.7,0,0,1,1-1Z"/><path class="cls-1" d="M29.41,27.25a.69.69,0,0,1-1,1l-2.07-2.06a.64.64,0,0,1,0-1,.64.64,0,0,1,1,0Z"/></svg>