<svg id="Layer_1" data-name="Layer 1" xmlns="http://www.w3.org/2000/svg" viewBox="0 0 64 64"><defs><style>.cls-1{fill:#fff;stroke:#191919;stroke-miterlimit:10;stroke-width:0.16px;}</style></defs><path class="cls-1" d="M32,55.61A23.61,23.61,0,1,1,55.61,32,23.63,23.63,0,0,1,32,55.61Zm0-43.44A19.83,19.83,0,1,0,51.83,32,19.85,19.85,0,0,0,32,12.17Z"/><circle class="cls-1" cx="24.62" cy="28.32" r="3.72"/><circle class="cls-1" cx="39.29" cy="28.32" r="3.72"/><path class="cls-1" d="M44.85,38.4C42.62,42,37.7,44.49,32,44.49S21.37,42,19.15,38.39C22.2,40.57,26.83,42,32,42S41.8,40.57,44.85,38.4Z"/></svg>