<svg id="Layer_1" data-name="Layer 1" xmlns="http://www.w3.org/2000/svg" viewBox="0 0 64 64"><defs><style>.cls-1{opacity:0.5;}.cls-2{fill:#fff;}</style></defs><rect class="cls-1" x="4.76" y="7.48" width="54.48" height="49.04" rx="2.98"/><path class="cls-2" d="M32,50.18H18.65c-3.14,0-5.52-2.16-5.45-5.16.13-5.64,1.89-10.4,7.6-12.85a1.75,1.75,0,0,1,2.3.35c5.44,5.23,12.33,5.18,17.88,0a1.74,1.74,0,0,1,2.33-.33c6,3,7.13,6.44,7.49,12.87.15,2.92-2.29,5.07-5.28,5.11C41,50.21,36.49,50.18,32,50.18Z"/><path class="cls-2" d="M31.73,34c-5.59-.2-10.18-5-9.92-10.34a10.2,10.2,0,0,1,20.39.52A10.23,10.23,0,0,1,31.73,34Z"/></svg>