<svg id="Layer_1" data-name="Layer 1" xmlns="http://www.w3.org/2000/svg" viewBox="0 0 64 64"><defs><style>.cls-1{fill:#fff;}</style></defs><path class="cls-1" d="M32,52.88c-5.11,0-10.22,0-15.33,0-3.6,0-6.34-2.48-6.26-5.93.15-6.47,2.17-11.94,8.73-14.76a2,2,0,0,1,2.64.41c6.25,6,14.17,5.95,20.54,0A2,2,0,0,1,45,32.22C51.88,35.6,53.19,39.61,53.6,47c.18,3.35-2.62,5.83-6.06,5.87C42.36,52.92,37.17,52.88,32,52.88Z"/><path class="cls-1" d="M31.7,34.28C25.28,34.06,20,28.6,20.3,22.41a11.81,11.81,0,0,1,12.25-11.3C38.69,11.32,44,17,43.73,23A11.76,11.76,0,0,1,31.7,34.28Z"/></svg>