<svg id="Layer_1" data-name="Layer 1" xmlns="http://www.w3.org/2000/svg" viewBox="0 0 40 40"><defs><style>.cls-1{fill:#353535;}.cls-2{fill:#303030;}</style></defs><path class="cls-1" d="M11.21,10.21c.1-1.28-.19-2.57,1-3.47a3.2,3.2,0,0,1,2.5-.46,3.1,3.1,0,0,1,1.57.63A2.9,2.9,0,0,1,17,8.35a8.26,8.26,0,0,1,0,1.86h5.87C23,8.93,22.74,7.58,24,6.69a3.41,3.41,0,0,1,2.38-.43c2.52.17,2.51,2,2.44,4H30.7a1.92,1.92,0,0,1,2,1.83,1,1,0,0,1,0,.24V31.69a2,2,0,0,1-1.8,2.1H9.46a2,2,0,0,1-2.17-1.72,2.54,2.54,0,0,1,0-.39V12.4A1.91,1.91,0,0,1,9,10.28h.41Zm19.49,5.9H9.3V31.85H30.7ZM15.14,10.94V9c0-.66-.43-.75-1-.74s-1.06-.07-1,.76v3.45c0,1.16,0,1.24,1.3,1.22.52,0,.71-.22.69-.73S15.14,11.6,15.14,10.94Zm9.77-.13v2.12c0,.49.21.68.68.67h.63c.44,0,.66-.18.66-.63V8.84c0-.42-.18-.62-.59-.64H25.5c-.44,0-.62.21-.6.66C24.93,9.55,24.91,10.2,24.91,10.81Z"/><rect class="cls-2" x="11.53" y="18.6" width="3.86" height="3.86" rx="0.76"/><rect class="cls-2" x="18.27" y="18.6" width="3.86" height="3.86" rx="0.76"/><rect class="cls-2" x="25.01" y="18.6" width="3.86" height="3.86" rx="0.76"/><rect class="cls-2" x="11.53" y="25.49" width="3.86" height="3.86" rx="0.76"/><rect class="cls-2" x="18.27" y="25.49" width="3.86" height="3.86" rx="0.76"/><rect class="cls-2" x="25.01" y="25.49" width="3.86" height="3.86" rx="0.76"/></svg>