<svg id="Layer_1" data-name="Layer 1" xmlns="http://www.w3.org/2000/svg" viewBox="0 0 64 64"><defs><style>.cls-1{fill:#929292;}.cls-2{fill:none;stroke:#929292;stroke-miterlimit:10;stroke-width:2.59px;}</style></defs><path class="cls-1" d="M52.63,51.61l-1.07,1.07a.45.45,0,0,1-.66,0l-4.23-4.23a.38.38,0,0,1-.13-.09L34.15,36a.48.48,0,0,1,0-.67l1.07-1.07a.48.48,0,0,1,.67,0l4.25,4.25a.26.26,0,0,1,.11.07L52.63,50.94A.46.46,0,0,1,52.63,51.61Z"/><circle class="cls-2" cx="24.91" cy="24.86" r="13.68"/><circle class="cls-1" cx="24.91" cy="24.86" r="9.38"/></svg>