<svg id="Layer_1" data-name="Layer 1" xmlns="http://www.w3.org/2000/svg" viewBox="0 0 64 64"><defs><style>.cls-1{fill:#fff;}</style></defs><path class="cls-1" d="M45.55,18.77,21.82,47.61l-.1.11a1.51,1.51,0,0,1-1.06.44,1.46,1.46,0,0,1-1.05-.44L8.21,36.36a1.79,1.79,0,1,1,2.52-2.53l9.78,9.74L42.79,16.49a1.8,1.8,0,0,1,2.52-.24A1.77,1.77,0,0,1,45.55,18.77Z"/><path class="cls-1" d="M55.91,18.77,33.4,46.11,30.88,43.6l-1.29-1.28a1.79,1.79,0,0,0-3.05,1.27,1.82,1.82,0,0,1,.51-1.35,1.72,1.72,0,0,1,2.28-.19l1,1,.51.5L53.15,16.49a1.79,1.79,0,0,1,2.76,2.28Z"/><path class="cls-1" d="M33.43,46.07,32.08,47.6a.74.74,0,0,1-.09.12,1.48,1.48,0,0,1-1,.44,1.44,1.44,0,0,1-1-.44l-3-3.06h0a1.78,1.78,0,0,1-.37-.83,1.94,1.94,0,0,1,0-.24,1.82,1.82,0,0,1,.51-1.35,1.72,1.72,0,0,1,2.28-.19l.21.18.81.84.53.53Z"/></svg>