<svg id="Layer_1" data-name="Layer 1" xmlns="http://www.w3.org/2000/svg" viewBox="0 0 64 64"><defs><style>.cls-1{fill:#95a5fe;}</style></defs><path class="cls-1" d="M28.5,25.63c1.5,0,2.89,0,4.27,0a33.3,33.3,0,0,1,11.28,2.19,13.39,13.39,0,0,1,8.62,10.43,47.81,47.81,0,0,1,.58,5.35,1.65,1.65,0,0,1-1,1.78,1.76,1.76,0,0,1-2-.54,22.15,22.15,0,0,0-13.45-6.78,31.56,31.56,0,0,0-7.46-.1,5.8,5.8,0,0,0-.79.18V44.6a8.56,8.56,0,0,1,0,1.24,1.64,1.64,0,0,1-1.11,1.46,1.67,1.67,0,0,1-1.79-.42L11.44,33.46a1.67,1.67,0,0,1,0-2.7l14-13.49c.94-.91,2.1-.91,2.74.05a2.64,2.64,0,0,1,.34,1.31c0,2,0,4.06,0,6.09Z"/></svg>