<svg id="Layer_1" data-name="Layer 1" xmlns="http://www.w3.org/2000/svg" viewBox="0 0 40 40"><path d="M21.68,22.6H28.9a1.76,1.76,0,0,0,1.9-1.9V19.21A1.72,1.72,0,0,0,29,17.4H21.68a4.14,4.14,0,0,1,1-1.43,4.31,4.31,0,0,1,3-1.14H29a4.3,4.3,0,0,1,4.36,4.36V20.9a4.32,4.32,0,0,1-4.25,4.26c-1.2,0-2.4,0-3.59,0a4.2,4.2,0,0,1-3.75-2.32A1.38,1.38,0,0,1,21.68,22.6Z"/><path d="M18.29,17.48a1.43,1.43,0,0,0-.28-.07c-2.3,0-4.59,0-6.88,0A1.76,1.76,0,0,0,9.2,19.33v1.49A1.72,1.72,0,0,0,11,22.6h7a2.89,2.89,0,0,1,.29,0,3.27,3.27,0,0,1-.86,1.36,4.15,4.15,0,0,1-3,1.26c-1.2,0-2.4,0-3.59,0a4.3,4.3,0,0,1-4.24-4.26q0-.93,0-1.86a4.31,4.31,0,0,1,4.22-4.23c1.21,0,2.41,0,3.62,0a4.22,4.22,0,0,1,3.75,2.31l.09.22Z"/><path d="M26,21.23a1.59,1.59,0,0,1-1.16.48c-3.17,0-6.35,0-9.52,0A1.68,1.68,0,0,1,13.58,20a1.7,1.7,0,0,1,1.69-1.71h9.5a1.63,1.63,0,0,1,1.57,1.07A1.72,1.72,0,0,1,26,21.23Z"/></svg>