<svg id="Layer_1" data-name="Layer 1" xmlns="http://www.w3.org/2000/svg" viewBox="0 0 40 40"><defs><style>.cls-1{fill:#fdfdfd;}</style></defs><path class="cls-1" d="M23.18,34.64H12.12A3.62,3.62,0,0,1,8.51,31V9a3.62,3.62,0,0,1,3.61-3.62H27.88A3.62,3.62,0,0,1,31.49,9V22.63H29.58V9a1.71,1.71,0,0,0-1.7-1.71H12.12A1.71,1.71,0,0,0,10.42,9V31a1.71,1.71,0,0,0,1.7,1.71H23.18Z"/><path class="cls-1" d="M26.64,11.74H13.36a1.06,1.06,0,1,1,0-2.12H26.64a1.06,1.06,0,0,1,0,2.12Z"/><path class="cls-1" d="M23.57,17.69H13.36a1.06,1.06,0,0,1,0-2.12H23.57a1.06,1.06,0,1,1,0,2.12Z"/><path class="cls-1" d="M18.09,23.16H13.36a1.06,1.06,0,0,1,0-2.12h4.73a1.06,1.06,0,0,1,0,2.12Z"/><path class="cls-1" d="M23.55,31.68a5,5,0,0,1-.82-10,4.94,4.94,0,0,1,3.76.87,5,5,0,0,1,2.05,3.28h0a5.05,5.05,0,0,1-4.15,5.82A6,6,0,0,1,23.55,31.68Zm0-8.62a4,4,0,0,0-.59.05,3.56,3.56,0,1,0,1.17,7A3.55,3.55,0,0,0,27.07,26h0a3.57,3.57,0,0,0-3.51-3Z"/><rect class="cls-1" x="27.78" y="28.76" width="1.48" height="4.9" rx="0.72" transform="translate(-13.72 29.31) rotate(-45)"/></svg>