<svg id="Layer_1" data-name="Layer 1" xmlns="http://www.w3.org/2000/svg" viewBox="0 0 64 64"><path d="M12.26,21.12H8V16.8l2-.17c0-.47.06-.88.08-1.3.12-2.38.63-2.9,3-2.93,2.15,0,4.31,0,6.46,0h1.26c.2-1.15.35-2.23.58-3.28a7.54,7.54,0,0,1,7.22-5.46,55.64,55.64,0,0,0,6.71,0c4-.23,7.67,3.5,7.66,7.63v1.12h2.39c1.9,0,3.8,0,5.7,0,2.14,0,2.78.7,2.82,2.83v1.41l2.21.14c0,1.06,0,2.06,0,3.06,0,.37-.06.74-.1,1.27H51.58v1.65q0,15.71,0,31.42a6.23,6.23,0,0,1-6.09,6.16q-13.5,0-27,0a6.24,6.24,0,0,1-6.17-6.21q0-15.72-.05-31.43Zm4.38.1c0,.31-.07.47-.07.63q.06,15.78.13,31.56c0,2.17.56,2.7,2.75,2.71q12.42,0,24.84,0c2.38,0,2.9-.56,2.91-2.94q0-15.41.07-30.8c0-.37,0-.73-.07-1.16Zm8.92-8.94H38.32c.11-2.93-1-4.19-3.83-4.21-1.81,0-3.62,0-5.44,0C26.56,8.14,25.27,9.69,25.56,12.28Z"/><path d="M25.33,25.59v26H21.17v-26Z"/><path d="M34,51.64H29.77v-26H34Z"/><path d="M38.62,25.59h4.15V51.64H38.62Z"/></svg>