<svg id="Layer_1" data-name="Layer 1" xmlns="http://www.w3.org/2000/svg" viewBox="0 0 64 64"><defs><style>.cls-1{fill:#fff;}</style></defs><path class="cls-1" d="M12.26,21.12H8V16.8l2-.17c0-.47.06-.88.08-1.3.12-2.38.63-2.9,3-2.93H20.8c.2-1.15.35-2.23.58-3.28A7.54,7.54,0,0,1,28.6,3.66a57.77,57.77,0,0,0,6.71,0c4-.23,7.67,3.5,7.66,7.63v1.12h8.09c2.14,0,2.78.7,2.82,2.83v1.41l2.21.14v3.06c0,.37-.06.74-.1,1.27H51.58V54.19a6.23,6.23,0,0,1-6.09,6.16h-27a6.24,6.24,0,0,1-6.17-6.21q0-15.72-.05-31.43Zm4.38.1c0,.31-.07.47-.07.63q.06,15.78.13,31.56c0,2.17.56,2.7,2.75,2.71H44.29c2.38,0,2.9-.56,2.91-2.94q0-15.41.07-30.8a6.79,6.79,0,0,0-.07-1.16Zm8.92-8.94H38.32c.11-2.93-1-4.19-3.83-4.21H29.05C26.56,8.14,25.27,9.69,25.56,12.28Z"/><path class="cls-1" d="M25.33,25.59v26H21.17v-26Z"/><path class="cls-1" d="M34,51.64H29.77v-26H34Z"/><path class="cls-1" d="M38.62,25.59h4.15V51.64H38.62Z"/></svg>