<svg id="Layer_1" data-name="Layer 1" xmlns="http://www.w3.org/2000/svg" viewBox="0 0 64 64"><defs><style>.cls-1{fill:#fff;}</style></defs><path class="cls-1" d="M16.62,21.1c-1.84-3.59-1.51-6.26,1-8.22a5.69,5.69,0,0,1,7.33.25c2.22,1.95,2.48,4.8.86,7.6a45.19,45.19,0,0,1,3.73,4.21,7.9,7.9,0,0,1,1.08,5.4h-19A9.13,9.13,0,0,1,16.62,21.1Zm-2.63,7H28.23c-.28-3.25-3.12-5.54-6.77-5.55C17.19,22.53,14.3,24.65,14,28.09ZM21.1,13.9a3.44,3.44,0,0,0-3.47,3.54,3.52,3.52,0,0,0,3.48,3.46,3.57,3.57,0,0,0,3.55-3.52A3.5,3.5,0,0,0,21.1,13.9Z"/><path class="cls-1" d="M47.31,43.11a9.15,9.15,0,0,1,5.09,9.23h-19a9.1,9.1,0,0,1,5-9.24c-1.86-3.52-1.53-6.2,1-8.21a5.64,5.64,0,0,1,7.14.11C48.88,37,49.18,39.8,47.31,43.11Zm2.6,7c0-2.95-2.95-5.5-6.33-5.57-4.56-.11-7.62,2-7.84,5.57Zm-7-14.23a3.54,3.54,0,0,0-3.56,3.5,3.58,3.58,0,0,0,3.56,3.53,3.53,3.53,0,0,0,3.47-3.47A3.45,3.45,0,0,0,42.87,35.89Z"/><path class="cls-1" d="M44.4,27.83,46.1,26c.53-.55,1.15-.71,1.72-.14s.37,1.18-.16,1.72Q45.82,29.42,44,31.26a1.17,1.17,0,0,1-1.89,0c-1.25-1.25-2.51-2.5-3.76-3.76-.54-.54-.71-1.16-.13-1.71s1.22-.35,1.72.21,1,1.21,1.58,1.81l.27-.18c0-1.82.14-3.65,0-5.44-.14-1.3-1.41-2.1-2.93-2.13-2,0-3.93,0-5.89,0a2.06,2.06,0,0,1-1-.09c-.37-.26-.83-.71-.82-1.06s.55-1,.87-1a62.12,62.12,0,0,1,8.19.11c2.32.27,3.91,2.58,4,5,0,1.52,0,3,0,4.56Z"/><path class="cls-1" d="M19.82,36.26c-.57.61-1.13,1.23-1.71,1.83a1.05,1.05,0,0,1-1.63.14c-.59-.57-.43-1.17.11-1.71l3.76-3.77a1.19,1.19,0,0,1,1.91.06c1.21,1.24,2.44,2.46,3.67,3.69.52.53.75,1.14.18,1.73s-1.19.4-1.71-.16S23.25,36.82,22.49,36c0,2.34-.15,4.36.05,6.35.14,1.39,1.45,2.19,3,2.21s3.32,0,5,0c.75,0,1.34.22,1.35,1.06s-.58,1.11-1.32,1.11c-1.78,0-3.56.07-5.33,0a5.15,5.15,0,0,1-5.05-5.26c0-1.65,0-3.31,0-5Z"/></svg>