<svg id="Layer_1" data-name="Layer 1" xmlns="http://www.w3.org/2000/svg" viewBox="0 0 64 64"><defs><style>.cls-1{fill:#fff;}</style></defs><path class="cls-1" d="M13.05,38.59A19.67,19.67,0,0,1,9.36,37.5a4,4,0,0,1-2.15-3.89c.06-6,0-12.08,0-18.13A4.21,4.21,0,0,1,11.67,11c10.42,0,20.85,0,31.27,0a4.59,4.59,0,0,1,4,3.49c.14.52.15,15.07.11,16.34L47,34a4.3,4.3,0,0,1-4.29,4.24c-6.32,0-12.63.07-18.95,0a3.46,3.46,0,0,0-2.92,1.45c-1.51,1.72-3,3.46-4.51,5.2a1.66,1.66,0,0,1-2.1.58,1.94,1.94,0,0,1-1.21-2C13.11,41.75,13.05,40.09,13.05,38.59Zm2.55,3.17c1.26-1.48,2.32-2.76,3.42-4a5,5,0,0,1,4.27-2.14c6.34.18,12.7.07,19.05.07,1.44,0,2.1-.66,2.1-2.11q0-8.94,0-17.88c0-1.44-.66-2.1-2.11-2.1H11.89c-1.44,0-2.1.66-2.1,2.11V33.58a2.12,2.12,0,0,0,2,2.1h.81c3-.1,3.11.07,3,3C15.58,39.59,15.6,40.54,15.6,41.76Z"/><path class="cls-1" d="M48.17,49.19c0-1.67,0-3,0-4.38,0-1.17.51-1.66,1.68-1.69.74,0,1.47,0,2.21,0A1.76,1.76,0,0,0,54,41.18c0-6,0-12.09,0-18.13,0-1.28-.5-1.82-1.85-2-.78-.11-1.36-.53-1.35-1.28a1.53,1.53,0,0,1,.82-1.19,3.54,3.54,0,0,1,2,.13,4.62,4.62,0,0,1,3.15,4.67c0,5.81.05,11.62,0,17.43,0,2.74-1.84,5-4.86,4.88-.9,0-1.28.81-1.18,2s0,2.42,0,3.63A1.56,1.56,0,0,1,49.27,53a2.44,2.44,0,0,1-1.77-.68c-1.81-1.92-3.49-4-5.3-5.9a2.58,2.58,0,0,0-1.68-.68q-8.21-.08-16.4,0c-.91,0-1.52-.28-1.73-1.13-.15-.63.89-1.45,1.75-1.45,5.93,0,11.86,0,17.79,0,1.53,0,1.92,1.25,2.71,2C45.85,46.31,46.88,47.68,48.17,49.19Z"/><circle class="cls-1" cx="21.9" cy="24.72" r="1.52"/><circle class="cls-1" cx="26.07" cy="24.72" r="1.52"/><circle class="cls-1" cx="30.4" cy="24.72" r="1.52"/></svg>