<svg id="Layer_1" data-name="Layer 1" xmlns="http://www.w3.org/2000/svg" viewBox="0 0 64 64"><defs><style>.cls-1{fill:#fff;}</style></defs><rect class="cls-1" x="1.87" y="13.97" width="60.26" height="36.06" rx="2.76"/><path d="M22.4,42.06c-3.15,2.29-8.5,1.95-11.93-.71A10.86,10.86,0,0,1,7,28.86c1.54-4,5.87-7,9.62-6.73.11,2.83.29,5.67.31,8.51a7.35,7.35,0,0,0,1.13,4C19.57,37.05,21,39.57,22.4,42.06Z"/><path d="M18,20.05C25,20.2,30.58,26,30.36,32.53c-2.58,0-5.15,0-7.72,0a34.61,34.61,0,0,1-3.68-.2c-.34,0-.88-.56-.88-.87C18,27.69,18,23.91,18,20.05Zm10.85,11.1c-.06-4.66-4.89-9.54-9.54-9.6v9.6Z"/><path d="M57.72,36.18v2H36.13v-2Z"/><path d="M19.08,33.51H28.2c.72,2.26-1.58,7-4.25,8.32Z"/><path d="M45.65,32.69H42.22V20.32h3.43Z"/><path d="M36.08,22.36h3.59V32.61a.93.93,0,0,1-.22.09c-3.37.32-3.37.32-3.37-3Z"/><path d="M36.08,44V41.88H51.81V44Z"/><path d="M48.24,26.14h3.5v6.4h-3.5Z"/><path class="cls-1" d="M28.89,31.15H19.35v-9.6C24,21.61,28.83,26.49,28.89,31.15Z"/></svg>