<svg id="Layer_1" data-name="Layer 1" xmlns="http://www.w3.org/2000/svg" viewBox="0 0 64 64"><defs><style>.cls-1{fill:#fff;}</style></defs><path class="cls-1" d="M35.52,42.53h-7v9.34c0,1-.14,1.13-1.19,1.13H14.61c-.79,0-1.14-.3-1.12-1.06V32.81a1.65,1.65,0,0,1,.58-1.15C19.8,27,25.55,22.42,31.29,17.75a1.08,1.08,0,0,1,1.46,0h0C38.48,22.37,44.23,27,50,31.66a1.67,1.67,0,0,1,.56,1.17V52c0,.82-.31,1.11-1.17,1.11H36.76c-1.14,0-1.24-.12-1.24-1.25ZM31.9,19.12l-.7.54L15.38,32.27a1.48,1.48,0,0,0-.61,1.3V51.5H26.9V42.19c0-1,.16-1.16,1.22-1.16h7.59c1.19,0,1.32.15,1.32,1.33v9.16H48.92V33.33a1.42,1.42,0,0,0-.55-1C46.3,30.67,44.18,29,42.06,27.3Z"/><polygon class="cls-1" points="14.06 52.02 14.06 32.63 22.47 25.69 32.04 18.1 36.27 21.49 44.34 27.84 50.01 32.96 50.01 40.13 50.01 50.61 49.5 52.02 35.52 51.82 36.1 44.01 35.76 40.55 27.61 41.38 27.96 47.15 26.91 51.5 27.36 52.02 23.5 52.02 14.06 52.02"/><path class="cls-1" d="M51.32,27.24a3,3,0,0,1,0,.34,1.4,1.4,0,0,1-.33.61h0a1.21,1.21,0,0,1-.57.32,1.15,1.15,0,0,1-.37.06,1.26,1.26,0,0,1-.68-.2L49,28.13h0c-1-.85-2.2-1.78-3.33-2.67s-2.28-1.81-3.25-2.61L31.94,14.05l-.39.31L15,28.06l-.35.29s0,0,0,0a1.29,1.29,0,0,1-.65.17,1.34,1.34,0,0,1-.79-.26,1.29,1.29,0,0,1-.5-.83h0a.78.78,0,0,1,0-.22,1.2,1.2,0,0,1,.21-.7c.21-.18.41-.36.63-.52,2.34-2,4.66-3.92,7-5.87q5.2-4.36,10.42-8.76a1.66,1.66,0,0,1,2.32,0c6.6,5.53,12.31,10.35,17.38,14.69l.43.36A1.31,1.31,0,0,1,51.32,27.24Z"/><path class="cls-1" d="M13.52,26c-.22.16-.42.34-.63.52"/><path class="cls-1" d="M14.65,28.39s0,0,0,0l.35-.29"/><path class="cls-1" d="M51.06,26.46l-.43-.36"/><rect class="cls-1" x="41.17" y="13" width="2.84" height="8.93" rx="1.36"/></svg>