<svg id="Layer_1" data-name="Layer 1" xmlns="http://www.w3.org/2000/svg" viewBox="0 0 64 64"><defs><style>.cls-1{opacity:0.5;}.cls-2{fill:#fff;}</style></defs><rect class="cls-1" x="4.77" y="7.39" width="54.48" height="49.04" rx="2.98"/><path class="cls-2" d="M32,47.44H23.69a3.19,3.19,0,0,1-3.38-3v-.24c.08-3.51,1.17-6.48,4.73-8a1.07,1.07,0,0,1,1.43.22c3.38,3.23,7.69,3.23,11.15,0a1,1,0,0,1,1.43-.18c3.76,1.83,4.47,4,4.69,8a3.11,3.11,0,0,1-3.07,3.15h-.21C37.62,47.46,34.8,47.44,32,47.44Z"/><path class="cls-2" d="M39.25,34.73l.6-4.78c1.57.11,3.3.56,4.87.25A13,13,0,0,0,49,28a1.21,1.21,0,0,1,1.41-.21c3.75,1.7,4.79,4.48,4.68,8.46A3.09,3.09,0,0,1,52,39c-2.38,0-4.77,0-7.15,0-.27,0-.69-.07-.78-.24A9.91,9.91,0,0,0,39.25,34.73Z"/><path class="cls-2" d="M24.14,29.69l.61,4.81c-1.2.9-2.82,1.64-3.63,2.89-1.07,1.69-2.36,1.69-3.95,1.69H12.32a3.18,3.18,0,0,1-3.34-3V35.7c0-3.58,1.23-6.46,4.82-7.86a1.26,1.26,0,0,1,1.07.07A7.84,7.84,0,0,0,24,29.72.21.21,0,0,1,24.14,29.69Z"/><path class="cls-2" d="M31.84,37.35a6.28,6.28,0,1,1,6.52-6.1A6.38,6.38,0,0,1,31.84,37.35Z"/><path class="cls-2" d="M37.08,22.61a5.78,5.78,0,1,1,0,.11A.45.45,0,0,1,37.08,22.61Z"/><path class="cls-2" d="M26.93,22.67a6.29,6.29,0,1,1-6.3-6.29,6.19,6.19,0,0,1,6.3,6.06Z"/></svg>