<svg id="Layer_1" data-name="Layer 1" xmlns="http://www.w3.org/2000/svg" viewBox="0 0 64 64"><defs><style>.cls-1{fill:#fff;}</style></defs><path class="cls-1" d="M32,50.36c-3.28,0-6.56,0-9.83,0a3.76,3.76,0,0,1-4-3.8c.1-4.15,1.39-7.66,5.6-9.46a1.28,1.28,0,0,1,1.69.26c4,3.82,9.09,3.82,13.18,0a1.26,1.26,0,0,1,1.7-.21c4.44,2.17,5.28,4.74,5.54,9.48A3.68,3.68,0,0,1,42,50.35C38.64,50.38,35.31,50.36,32,50.36Z"/><path class="cls-1" d="M40.57,35.33l.71-5.65c1.86.13,3.9.66,5.76.29s3.4-1.56,5-2.59a1.45,1.45,0,0,1,1.67-.24c4.43,2,5.66,5.29,5.53,10a3.64,3.64,0,0,1-3.6,3.23c-2.82.06-5.64,0-8.46,0-.32,0-.81-.08-.92-.29A11.76,11.76,0,0,0,40.57,35.33Z"/><path class="cls-1" d="M22.7,29.37l.72,5.69C22,36.12,20.09,37,19.13,38.48c-1.26,2-2.79,2-4.67,2s-3.83,0-5.74,0a3.76,3.76,0,0,1-3.94-4c0-4.24,1.45-7.64,5.7-9.3a1.47,1.47,0,0,1,1.26.09,9.25,9.25,0,0,0,10.79,2.13A.22.22,0,0,1,22.7,29.37Z"/><path class="cls-1" d="M31.81,38.43a7.43,7.43,0,1,1,7.71-7.22A7.55,7.55,0,0,1,31.81,38.43Z"/><path class="cls-1" d="M38,21a7.43,7.43,0,1,1,7.38,7.49A7.37,7.37,0,0,1,38,21Z"/><path class="cls-1" d="M26,21.07a7.43,7.43,0,1,1-7.45-7.44A7.31,7.31,0,0,1,26,21.07Z"/></svg>