<svg id="Layer_1" data-name="Layer 1" xmlns="http://www.w3.org/2000/svg" viewBox="0 0 40 40"><path d="M19.12,33.8c-.62-.15-1.27-.27-1.88-.48A7.63,7.63,0,0,1,12,26.37c-.09-3.64,0-7.28,0-10.91a1.09,1.09,0,0,1,1.14-1.18,1.1,1.1,0,0,1,1.11,1.25c0,3.39,0,6.79,0,10.18a5.62,5.62,0,0,0,4.6,5.69,5.67,5.67,0,0,0,6.91-5.62c0-4.56,0-9.12,0-13.67a3.44,3.44,0,1,0-6.88-.06c0,4.51,0,9,0,13.55,0,.91.38,1.33,1.15,1.32s1.17-.44,1.17-1.33q0-4.75,0-9.51c0-.2,0-.41,0-.61a1.08,1.08,0,0,1,1.11-1.19,1.11,1.11,0,0,1,1.14,1.17c0,.53,0,1.06,0,1.6,0,3,0,6,0,9a3.23,3.23,0,0,1-2.81,3.15,3.34,3.34,0,0,1-3.87-2.25,4.12,4.12,0,0,1-.18-1.21c0-4.59,0-9.19,0-13.79a5.73,5.73,0,0,1,11.31-1.24A6.41,6.41,0,0,1,28,12.17c0,4.48,0,9,0,13.43a7.89,7.89,0,0,1-7,8.12.65.65,0,0,0-.22.08Z"/></svg>