<svg id="Layer_1" data-name="Layer 1" xmlns="http://www.w3.org/2000/svg" viewBox="0 0 64 64"><defs><style>.cls-1{fill:#fff;}</style></defs><path class="cls-1" d="M36.87,48.85a5,5,0,0,1-2.12,2.83,4.84,4.84,0,0,1-2.67.88,5.29,5.29,0,0,1-4.93-3.71Z"/><path class="cls-1" d="M51.63,46.28a1.1,1.1,0,0,1-.94,1.1,1.34,1.34,0,0,1-.4,0H44.36v0H13.55a1.14,1.14,0,0,1-1.18-1.08v-.12a1.09,1.09,0,0,1,1.1-1h.08a4.25,4.25,0,0,0,4.24-4.24v-10a16,16,0,0,1,5.05-11.8,13.18,13.18,0,0,1,6.28-3.4v-1.4a2.89,2.89,0,0,1,5.78,0v1.42a13.26,13.26,0,0,1,6.83,3.93A16,16,0,0,1,46.33,31V41.92a3.28,3.28,0,0,0,3.28,3.28h1A1.1,1.1,0,0,1,51.63,46.28Z"/></svg>