<svg id="Layer_1" data-name="Layer 1" xmlns="http://www.w3.org/2000/svg" viewBox="0 0 64 64"><defs><style>.cls-1{fill:#fed813;}</style></defs><path class="cls-1" d="M28.45,10,23.77,21.39A2.63,2.63,0,0,1,21.88,23L9.8,25.6a2.65,2.65,0,0,0-1.15,4.6l9.44,8A2.66,2.66,0,0,1,19,40.48l-1.24,12.3a2.65,2.65,0,0,0,4,2.51l10.51-6.5a2.65,2.65,0,0,1,2.46-.17l11.32,5a2.64,2.64,0,0,0,3.63-3l-2.94-12a2.65,2.65,0,0,1,.6-2.38l8.23-9.23a2.65,2.65,0,0,0-1.78-4.4L41.5,21.6a2.62,2.62,0,0,1-2.08-1.3L33.18,9.62A2.64,2.64,0,0,0,28.45,10Z"/></svg>