<svg id="Layer_1" data-name="Layer 1" xmlns="http://www.w3.org/2000/svg" viewBox="0 0 64 64"><defs><style>.cls-1{fill:#fff;}</style></defs><path class="cls-1" d="M52.38,38.53c.69-1.43,1.17-3,.27-4.31-1.33-1.89-2.49-4.17-4.94-5.26-.91-.4-1-1.63-.45-2.63a2.15,2.15,0,0,1,2.45-1.22c1,.22,2,1,1.78,2-.42,2,.84,3.3,1.73,4.73,1,1.63,2.06,3.19,1.71,5.26-.06.38.09,1.13.23,1.15Z"/><path class="cls-1" d="M52.38,38.53c-.55.65-1.3.42-2,.42H10c-.67,0-1.42.24-2-.4Z"/><path class="cls-1" d="M46.22,36.3s0,.07,0,.11,0,0,0,.06v.08H42.27A11.38,11.38,0,0,0,42,33.48c-.16-.5-.47-1.12-1-1.06,0,1,0,2.07,0,3.1a4.45,4.45,0,0,0,.11,1H22.82a3.54,3.54,0,0,0,.1-1c0-1,0-2.06-.05-3.1-.52-.06-.83.56-1,1.06a12.28,12.28,0,0,0-.28,3.07H17.8v-.1c0-.27,0-.53,0-.8,0-.57,0-1.16,0-1.74a17,17,0,0,1,.93-4.75,11.33,11.33,0,0,1,5.38-6.42,14.65,14.65,0,0,1,5-1.55l.36,0v-.81a6.83,6.83,0,0,1-2.36-1.5,7.24,7.24,0,0,1-2.23-6.09A6.37,6.37,0,0,1,27,8.53,6.91,6.91,0,0,1,31.4,6.65c3.43,0,6,1.4,7.11,3.94a7.26,7.26,0,0,1-2.07,8.6,6.75,6.75,0,0,1-1.92,1.13v.84a13.44,13.44,0,0,1,6.65,2.45,12.24,12.24,0,0,1,4.59,7.52A22.6,22.6,0,0,1,46.22,36.3Z"/><path class="cls-1" d="M7.39,37.54H56.61a0,0,0,0,1,0,0v4.09a3.78,3.78,0,0,1-3.78,3.78H10.17a2.78,2.78,0,0,1-2.78-2.78V37.54a0,0,0,0,1,0,0Z"/><polygon class="cls-1" points="44.8 57.35 18.9 57.35 16.91 42.77 47.09 42.77 44.8 57.35"/></svg>