<svg id="Layer_1" data-name="Layer 1" xmlns="http://www.w3.org/2000/svg" viewBox="0 0 64 64"><defs><style>.cls-1{fill:#fff;}</style></defs><path class="cls-1" d="M19.08,14.89a4.09,4.09,0,0,1-.78,0,8.16,8.16,0,0,1-.84-.26,1.26,1.26,0,0,1-.75-.6,2.12,2.12,0,0,1-.32-1.65,2.29,2.29,0,0,1,.54-1.13,1.82,1.82,0,0,1,1.45-.58c1.87,0,3.74,0,5.61,0H45.5a1.94,1.94,0,0,1,1.26.33,2.23,2.23,0,0,1,.84,1.3,2.1,2.1,0,0,1-.2,1.52,1.92,1.92,0,0,1-1.76,1.08h-.08c-.76,0-.76,0-.75.77,0,.45,0,.91,0,1.36s-.16,1-.25,1.49-.15,1-.29,1.53c-.24.82-.51,1.64-.8,2.44a13.08,13.08,0,0,1-.72,1.62c-.33.62-.69,1.22-1.06,1.81a21.25,21.25,0,0,1-2.77,3.14A3.52,3.52,0,0,0,38,30.76a7.19,7.19,0,0,0-.18,1.13,2,2,0,0,0,.06.77,15.32,15.32,0,0,0,.53,1.48,3.3,3.3,0,0,0,.87,1.13,12.71,12.71,0,0,1,1.13,1.19c.29.33.59.65.84,1s.67,1,1,1.51a12.41,12.41,0,0,1,.81,1.53,28.44,28.44,0,0,1,1,2.72,15.37,15.37,0,0,1,.46,2.14c.11.62.17,1.24.24,1.86s.11,1.2.16,1.81c0,0,0,0,0,.07h.63a2.05,2.05,0,0,1,2,1.59,2.31,2.31,0,0,1-.12,1.5,1.9,1.9,0,0,1-1.27,1.09,2.9,2.9,0,0,1-.78,0q-13.43,0-26.85,0a2,2,0,0,1-1.84-1,2.11,2.11,0,0,1-.24-1.56A2.16,2.16,0,0,1,17,49.66a1.89,1.89,0,0,1,1.36-.55c.78,0,.78,0,.8-.79,0-.46,0-.93,0-1.39s.13-.79.2-1.19a14.42,14.42,0,0,1,.28-1.62c.28-1,.58-1.91.93-2.85a16.29,16.29,0,0,1,.92-2,15.34,15.34,0,0,1,1.23-1.86,19.94,19.94,0,0,1,1.72-2,5.48,5.48,0,0,0,1-1.1A3.57,3.57,0,0,0,26,32.82c0-.26.12-.52.12-.77A9.36,9.36,0,0,0,26,30.88a4.51,4.51,0,0,0-.83-1.79c-.05-.08-.16-.13-.23-.21-.45-.44-.91-.89-1.34-1.35-.17-.18-.24-.45-.43-.59a5.62,5.62,0,0,1-1.11-1.5,16.84,16.84,0,0,1-1.11-2.05,16.81,16.81,0,0,1-.78-2c-.23-.75-.4-1.52-.57-2.28a10.77,10.77,0,0,1-.24-1.36C19.25,16.83,19.17,15.88,19.08,14.89Zm3.38,0c0,.27,0,.52,0,.76s.09.71.13,1.07a8.6,8.6,0,0,0,.11,1,10.37,10.37,0,0,0,.36,1.46c.24.75.5,1.49.79,2.22a6.32,6.32,0,0,0,.58,1.09,13.87,13.87,0,0,0,1.12,1.6,11.8,11.8,0,0,0,2.38,2,6,6,0,0,1,1.46,1.38,5.46,5.46,0,0,1,.93,3.12,15.42,15.42,0,0,1-.17,3.65,4.91,4.91,0,0,1-.71,2,4.71,4.71,0,0,1-.94,1.05,15.93,15.93,0,0,0-2.7,2.23,14.74,14.74,0,0,0-1.52,2.16,12.74,12.74,0,0,0-1.17,2.86c-.13.51-.24,1-.34,1.53s-.13.76-.18,1.14-.05.52-.07.78-.06.71-.08,1.07H41.51c0-.22,0-.42,0-.62s-.07-.4-.08-.6c0-.44,0-.89-.11-1.32a18.29,18.29,0,0,0-.46-1.91,13.88,13.88,0,0,0-1.3-3.14,13.45,13.45,0,0,0-1.82-2.42,5.67,5.67,0,0,0-1.1-.91c-.29-.19-.55-.41-.84-.58A4.09,4.09,0,0,1,34.35,36a6.59,6.59,0,0,1-.68-3,12.54,12.54,0,0,1,.12-3.18c.11-.46.18-.92.33-1.36a5,5,0,0,1,2-2.38,10.37,10.37,0,0,0,1.4-1,10.73,10.73,0,0,0,1.92-2.31,13.47,13.47,0,0,0,1.38-3.16c.18-.68.3-1.38.46-2.07a5.16,5.16,0,0,0,.17-1.56s0-.08,0-.12c0-.3.07-.6.1-.92Z"/><path class="cls-1" d="M32,21.46h6.46a.35.35,0,0,1,.31.55,3.7,3.7,0,0,1-.55.86c-.48.56-1,1.11-1.5,1.63a11.36,11.36,0,0,1-1.28,1,5.42,5.42,0,0,0-1.62,1.54,6,6,0,0,0-.75,1.81,9,9,0,0,0-.23,1.95c0,1.73,0,3.45,0,5.18a6.6,6.6,0,0,0,.65,2.84,4.8,4.8,0,0,0,1.34,1.75c.45.37,1,.63,1.47,1s1.24.83,1.84,1.26a5.58,5.58,0,0,1,1.62,1.8,8.82,8.82,0,0,1,.65,1.76,10.19,10.19,0,0,1,.25,1.36c0,.22-.27.45-.58.45l-9.45,0H24c-.39,0-.58-.1-.61-.36a1.36,1.36,0,0,1,0-.49c.16-.66.29-1.32.51-2a5.32,5.32,0,0,1,1.43-2.08,10.48,10.48,0,0,1,1.86-1.39L28.54,41A5.41,5.41,0,0,0,30,39.7,7.06,7.06,0,0,0,31,37.44a3.67,3.67,0,0,0,.13-1c0-1.49,0-3,0-4.47a17.26,17.26,0,0,0,0-1.76A6.4,6.4,0,0,0,30.6,28a9.71,9.71,0,0,0-.71-1.26,4.85,4.85,0,0,0-.87-.82c-.49-.41-1-.78-1.51-1.19a12.21,12.21,0,0,1-1.28-1.21,11.79,11.79,0,0,1-1-1.38.7.7,0,0,1,0-.49c0-.08.2-.14.31-.14C27.69,21.45,29.86,21.46,32,21.46Z"/></svg>