<svg id="Layer_1" data-name="Layer 1" xmlns="http://www.w3.org/2000/svg" viewBox="0 0 40 40"><defs><style>.cls-1{fill:#fff;}.cls-2{font-size:10.5px;stroke:#000;stroke-miterlimit:10;stroke-width:0.61px;font-family:NunitoSans-Regular, Nunito Sans;}</style></defs><path class="cls-1" d="M23.15,2.19H11.91A4.49,4.49,0,0,0,7.43,6.67V33.33a4.49,4.49,0,0,0,4.48,4.48H30.58a4.49,4.49,0,0,0,4.49-4.48V15.12Zm9.54,31.14a2.12,2.12,0,0,1-2.11,2.11H11.91A2.12,2.12,0,0,1,9.8,33.33V6.67a2.12,2.12,0,0,1,2.11-2.11H22.15v8.5a2.51,2.51,0,0,0,2.23,2.72h7.69a1.83,1.83,0,0,0,.62-.1Z"/><rect class="cls-1" x="4.93" y="19.21" width="25.78" height="13.45" rx="1.94"/><text class="cls-2" transform="translate(7.45 29.75)">PDF</text></svg>