<svg id="Layer_1" data-name="Layer 1" xmlns="http://www.w3.org/2000/svg" viewBox="0 0 40 40"><defs><style>.cls-1{fill:#fff;}.cls-2{font-size:10.5px;stroke:#000;stroke-miterlimit:10;stroke-width:0.61px;font-family:NunitoSans-Bold, Nunito Sans;font-weight:700;}</style></defs><path class="cls-1" d="M23.26,2.19H12A4.49,4.49,0,0,0,7.54,6.67V33.33A4.49,4.49,0,0,0,12,37.81H30.69a4.49,4.49,0,0,0,4.49-4.48V15.12Zm9.55,31.14a2.12,2.12,0,0,1-2.12,2.11H12a2.11,2.11,0,0,1-2.11-2.11V6.67A2.11,2.11,0,0,1,12,4.56H22.26v8.5a2.51,2.51,0,0,0,2.24,2.72h7.69a1.87,1.87,0,0,0,.62-.1Z"/><rect class="cls-1" x="4.82" y="19.21" width="18.98" height="13.45" rx="1.67"/><text class="cls-2" transform="translate(8.48 29.75)">W</text></svg>